HIERARCHY
ROOT Hips
{
	OFFSET 0.000000 0.000000 0.000000
	CHANNELS 6 Xposition Yposition Zposition Zrotation Yrotation Xrotation 
	JOINT LHipJoint
	{
		OFFSET 0.000000 0.000000 0.000000
		CHANNELS 3 Zrotation Yrotation Xrotation
		JOINT LeftUpLeg
		{
			OFFSET 1.363060 -1.794630 0.839290
			CHANNELS 3 Zrotation Yrotation Xrotation
			JOINT LeftLeg
			{
				OFFSET 2.448110 -6.726130 0.000000
				CHANNELS 3 Zrotation Yrotation Xrotation
				JOINT LeftFoot
				{
					OFFSET 2.562200 -7.039590 0.000000
					CHANNELS 3 Zrotation Yrotation Xrotation
					JOINT LeftToeBase
					{
						OFFSET 0.157640 -0.433110 2.322550
						CHANNELS 3 Zrotation Yrotation Xrotation
						End Site
						{
							OFFSET 0.000000 0.000000 0.000000
						}
					}
				}
			}
		}
	}
	JOINT RHipJoint
	{
		OFFSET 0.000000 0.000000 0.000000
		CHANNELS 3 Zrotation Yrotation Xrotation
		JOINT RightUpLeg
		{
			OFFSET -1.305520 -1.794630 0.839290
			CHANNELS 3 Zrotation Yrotation Xrotation
			JOINT RightLeg
			{
				OFFSET -2.542530 -6.985550 0.000000
				CHANNELS 3 Zrotation Yrotation Xrotation
				JOINT RightFoot
				{
					OFFSET -2.568260 -7.056230 0.000000
					CHANNELS 3 Zrotation Yrotation Xrotation
					JOINT RightToeBase
					{
						OFFSET -0.164730 -0.452590 2.363150
						CHANNELS 3 Zrotation Yrotation Xrotation
						End Site
						{
							OFFSET 0.000000 0.000000 0.000000
						}
					}
				}
			}
		}
	}
	JOINT LowerBack
	{
		OFFSET 0.000000 0.000000 0.000000
		CHANNELS 3 Zrotation Yrotation Xrotation
		JOINT Spine
		{
			OFFSET 0.028270 2.035590 -0.193380
			CHANNELS 3 Zrotation Yrotation Xrotation
			JOINT Spine1
			{
				OFFSET 0.056720 2.048850 -0.042750
				CHANNELS 3 Zrotation Yrotation Xrotation
				JOINT Neck
				{
					OFFSET 0.000000 0.000000 0.000000
					CHANNELS 3 Zrotation Yrotation Xrotation
					JOINT Neck1
					{
						OFFSET -0.054170 1.746240 0.172020
						CHANNELS 3 Zrotation Yrotation Xrotation
						JOINT Head
						{
							OFFSET 0.104070 1.761360 -0.123970
							CHANNELS 3 Zrotation Yrotation Xrotation
							End Site
							{
								OFFSET 0.000000 0.000000 0.000000
							}
						}
					}
				}
				JOINT LeftShoulder
				{
					OFFSET 0.000000 0.000000 0.000000
					CHANNELS 3 Zrotation Yrotation Xrotation
					JOINT LeftArm
					{
						OFFSET 3.362410 1.200890 -0.311210
						CHANNELS 3 Zrotation Yrotation Xrotation
						JOINT LeftForeArm
						{
							OFFSET 4.983000 -0.000000 -0.000000
							CHANNELS 3 Zrotation Yrotation Xrotation
							JOINT LeftHand
							{
								OFFSET 3.483560 -0.000000 -0.000000
								CHANNELS 3 Zrotation Yrotation Xrotation
								JOINT LeftFingerBase
								{
									OFFSET 0.000000 0.000000 0.000000
									CHANNELS 3 Zrotation Yrotation Xrotation
									JOINT LeftHandIndex1
									{
										OFFSET 0.715260 -0.000000 -0.000000
										CHANNELS 3 Zrotation Yrotation Xrotation
										End Site
										{
											OFFSET 0.000000 0.000000 0.000000
										}
									}
								}
								JOINT LThumb
								{
									OFFSET 0.000000 0.000000 0.000000
									CHANNELS 3 Zrotation Yrotation Xrotation
									End Site
									{
										OFFSET 0.000000 0.000000 0.000000
									}
								}
							}
						}
					}
				}
				JOINT RightShoulder
				{
					OFFSET 0.000000 0.000000 0.000000
					CHANNELS 3 Zrotation Yrotation Xrotation
					JOINT RightArm
					{
						OFFSET -3.136600 1.374050 -0.404650
						CHANNELS 3 Zrotation Yrotation Xrotation
						JOINT RightForeArm
						{
							OFFSET -5.241900 -0.000000 -0.000000
							CHANNELS 3 Zrotation Yrotation Xrotation
							JOINT RightHand
							{
								OFFSET -3.444170 -0.000000 -0.000000
								CHANNELS 3 Zrotation Yrotation Xrotation
								JOINT RightFingerBase
								{
									OFFSET 0.000000 0.000000 0.000000
									CHANNELS 3 Zrotation Yrotation Xrotation
									JOINT RightHandIndex1
									{
										OFFSET -0.622530 -0.000000 -0.000000
										CHANNELS 3 Zrotation Yrotation Xrotation
										End Site
										{
											OFFSET 0.000000 0.000000 0.000000
										}
									}
								}
								JOINT RThumb
								{
									OFFSET 0.000000 0.000000 0.000000
									CHANNELS 3 Zrotation Yrotation Xrotation
									End Site
									{
										OFFSET 0.000000 0.000000 0.000000
									}
								}
							}
						}
					}
				}
			}
		}
	}
}
MOTION
Frames: 7
Frame Time: 0.008333
3.803044 17.844768 14.788166 177.920637 -3.357967 -171.293905 -2.802246 0.179505 1.691659 -18.455359 0.549154 8.010436 1.052081 7.589573 22.214560 1.075852 -9.216630 8.317041 3.242300 -11.077300 -32.541000 2.723006 0.968168 -1.010659 13.319757 7.950850 -35.507848 -3.443292 -11.028643 32.868637 0.593372 -4.873563 4.055430 -0.054000 1.499200 -4.123400 -6.014786 -1.695291 -1.805081 0.774378 -2.004645 -2.987838 3.685779 -1.345974 1.668622 -10.284197 -7.525369 -18.372008 8.915978 -7.587430 14.858367 4.333300 -3.258000 12.985800 -1.808266 3.780445 -1.812145 -82.494244 -10.840311 20.347519 13.866806 -22.175089 -2.393540 0.383649 -1.592050 7.432783 12.495884 35.978275 7.352600 -7.125000 0.000000 0.000000 -29.578000 65.931800 -15.535000 -1.139486 -3.107347 -1.723250 74.037227 17.332050 11.842325 -13.312233 23.103375 -3.077735 -0.385330 0.103422 8.285376 6.300889 -2.693926 -0.321500 7.125000 0.000000 0.000000 26.153000 -31.826300 9.304000 
3.823339 17.838500 14.599143 177.936927 -3.126232 -171.408001 -2.769008 0.133944 1.623985 -18.433225 0.584507 7.098076 1.360830 8.304688 24.390238 1.099747 -9.195706 10.474815 3.323100 -11.200600 -32.959500 2.718962 0.976864 -0.995659 13.481033 8.214314 -34.889428 -3.549793 -11.186530 33.437234 0.478807 -4.366490 3.863342 -0.064700 1.640600 -4.513500 -5.990681 -1.631709 -1.759497 0.767492 -1.906925 -2.852253 3.664493 -1.308445 1.924416 -10.366953 -7.522199 -18.380643 9.030087 -7.573759 14.567324 4.386100 -3.256700 12.855900 -1.878983 3.842751 -1.798185 -82.828841 -10.099124 18.635443 13.075372 -20.892755 -2.013967 0.348440 -1.609169 8.661769 12.327304 36.424846 7.320400 -7.125000 0.000000 0.000000 -30.365300 66.264900 -16.211200 -1.068382 -3.155571 -1.693787 74.693225 15.711317 10.339009 -12.040704 21.016767 -2.516531 -0.308063 0.089250 8.409160 4.910195 -1.412413 -0.133100 7.125000 0.000000 0.000000 24.746600 -30.738400 9.425500 
3.843236 17.837505 14.415592 177.904856 -3.018609 -171.441008 -2.730476 0.082112 1.545608 -18.481296 0.217942 5.995800 1.745919 9.118807 26.906477 1.159178 -8.858030 13.365759 2.577700 -9.977900 -28.905100 2.718010 0.982123 -0.971977 13.572997 8.418824 -34.333951 -3.641408 -11.311838 33.880000 0.480409 -4.378949 3.876396 -0.078400 1.805900 -4.969700 -6.018704 -1.531637 -1.680687 0.738114 -1.772456 -2.803921 3.613831 -1.236618 1.947396 -10.307654 -7.517434 -18.001738 9.049237 -7.624740 14.071354 4.350900 -3.291300 12.547100 -1.931476 3.904459 -1.789055 -83.138341 -9.110670 17.216406 12.398189 -19.761296 -1.698184 0.323124 -1.628301 9.685285 12.010560 37.145193 7.230800 -7.125000 0.000000 0.000000 -31.727400 66.775900 -17.365900 -1.019968 -3.210266 -1.676278 75.315208 13.828495 7.763808 -11.483493 20.034260 -2.259722 -0.457554 0.148529 16.132836 7.435909 -3.520836 -0.490900 7.125000 0.000000 0.000000 27.264800 -32.468100 9.310700 
3.864526 17.857800 14.229653 178.044741 -2.978526 -171.470863 -2.695165 0.036347 1.471153 -18.299592 -0.271253 4.871392 2.163118 9.911771 29.402656 1.288181 -8.165597 16.808768 1.628300 -8.044600 -22.849500 2.711780 0.982218 -0.942435 13.909380 8.538573 -33.843039 -3.717471 -11.410554 34.241172 0.474381 -4.350673 3.834662 -0.071800 1.729000 -4.757200 -5.958118 -1.467385 -1.503848 0.794192 -1.705690 -2.814337 3.705228 -1.186529 1.812698 -10.231961 -7.446494 -17.785658 8.910486 -7.561284 13.798866 4.271200 -3.287300 12.358600 -1.970173 3.960962 -1.791962 -83.493576 -7.945028 15.755344 11.810620 -18.748363 -1.414556 0.323227 -1.661902 10.899987 10.754197 38.827499 6.632300 -7.125000 0.000000 0.000000 -35.672500 67.742200 -20.508600 -0.953602 -3.273841 -1.671156 75.766200 11.821568 5.356206 -10.730400 18.716418 -1.950615 -0.467332 0.155715 22.981482 7.914870 -2.882221 -0.419400 7.125000 0.000000 0.000000 27.421400 -31.815100 9.869600 
3.885219 17.881478 14.045405 178.502340 -2.890382 -171.480658 -2.658552 -0.011975 1.383814 -17.736722 -0.568568 3.527722 2.656601 10.741925 32.076579 1.449069 -7.622442 19.653185 1.190000 -6.922300 -19.485300 2.697777 0.981355 -0.920105 14.637305 8.656380 -33.321310 -3.772160 -11.475914 34.502834 0.412666 -4.095887 3.877653 -0.044900 1.367800 -3.761500 -5.514260 -1.477320 -1.432510 0.951820 -1.734366 -2.700362 3.785195 -1.201860 2.059961 -10.219804 -7.352217 -18.257611 8.680871 -7.400337 13.676542 4.183300 -3.250400 12.376300 -2.011007 4.005691 -1.781711 -83.984355 -7.243536 13.653675 11.157291 -17.617443 -1.127285 0.321475 -1.689062 12.551126 9.157721 39.867185 5.662400 -7.125000 0.000000 0.000000 -39.091300 68.022000 -22.939200 -0.876820 -3.351953 -1.666683 76.091971 10.389717 2.786698 -9.833772 17.158871 -1.621465 -0.435956 0.124666 29.002981 7.574859 -1.314853 -0.170400 7.125000 0.000000 0.000000 26.696500 -30.371500 10.599600 
3.902430 17.893416 13.873593 179.066330 -2.913973 -171.341954 -2.616783 -0.062865 1.293108 -17.018950 -0.957526 1.916434 3.210595 11.575305 34.861578 1.611249 -7.618656 21.848897 0.993700 -6.344400 -17.786900 2.690882 0.974756 -0.897479 15.406482 8.963281 -32.892782 -3.812475 -11.507512 34.654186 0.442159 -4.207197 3.783937 -0.029700 1.112800 -3.059200 -4.807091 -1.493848 -1.336016 1.088036 -1.788685 -2.647721 3.658012 -1.216989 2.155136 -10.141872 -7.303328 -18.667602 8.435834 -7.326077 13.558069 4.067900 -3.245900 12.394800 -2.054802 4.052350 -1.779889 -84.426310 -6.462019 11.706437 10.538875 -16.526483 -0.879475 0.276981 -1.704319 13.862776 9.079555 40.248523 5.655200 -7.125000 0.000000 0.000000 -39.845900 68.287500 -23.664900 -0.804583 -3.427503 -1.660282 76.548739 8.911870 -0.749942 -8.915084 15.535375 -1.312726 -0.385791 0.089033 34.719885 6.621174 0.249001 0.048600 7.125000 0.000000 0.000000 25.560500 -28.969000 11.014300 
3.922626 17.912219 13.698399 179.479482 -3.112880 -171.236704 -2.568110 -0.108289 1.196867 -16.397636 -1.543519 0.369980 3.823809 12.395944 37.697588 1.795680 -7.357512 24.082094 0.601800 -4.966000 -13.811600 2.690388 0.967268 -0.870711 16.021299 9.265150 -32.343923 -3.823835 -11.504586 34.654736 0.571224 -4.700573 3.343624 -0.037700 1.253700 -3.447100 -4.339396 -1.517516 -1.196747 1.177816 -1.845186 -2.609001 3.563449 -1.234220 2.197870 -9.876316 -7.262113 -19.047256 8.193679 -7.326651 13.510397 3.905200 -3.250400 12.435600 -2.084182 4.104505 -1.788085 -84.678709 -5.504339 10.266578 10.059891 -15.678719 -0.699562 0.233499 -1.712395 14.996461 9.227032 40.493425 5.788900 -7.125000 0.000000 0.000000 -40.136600 68.521400 -24.061200 -0.741371 -3.511558 -1.657899 77.084534 7.143824 -4.576006 -8.215100 14.305206 -1.099760 -0.327887 0.040839 40.064217 5.323963 1.883828 0.202300 7.125000 0.000000 0.000000 24.197300 -27.505500 11.246100 
